<svg xmlns="http://www.w3.org/2000/svg" width="256" height="384" viewBox="0 0 256 384">
  <rect x="2" y="2" width="252" height="380" rx="14" ry="14"
        fill="#FAFAF8" stroke="#AAAAAA" stroke-width="1.5"/>

  <!-- Top-left corner: rank label + small suit -->
  <text x="14" y="44" font-family="Fira Mono" font-size="36" font-weight="700"
        fill="#CC1111">9</text>
  <g transform="translate(14 50) scale(0.625)">
    <path d="M16,28 C 8,22 2,17 2,11 C 2,7 5,4 9,4 C 12,4 14,6 16,9 C 18,6 20,4 23,4 C 27,4 30,7 30,11 C 30,17 24,22 16,28 Z" fill="#CC1111"/>
  </g>

  <!-- Centre: large suit, 64x64 in 256x384 card -->
  <g transform="translate(96 160) scale(2)">
    <path d="M16,28 C 8,22 2,17 2,11 C 2,7 5,4 9,4 C 12,4 14,6 16,9 C 18,6 20,4 23,4 C 27,4 30,7 30,11 C 30,17 24,22 16,28 Z" fill="#CC1111"/>
  </g>

  <!-- Bottom-right corner: mirrored via 180° rotation around card centre -->
  <g transform="rotate(180 128 192)">
    <text x="14" y="44" font-family="Fira Mono" font-size="36" font-weight="700"
          fill="#CC1111">9</text>
    <g transform="translate(14 50) scale(0.625)">
      <path d="M16,28 C 8,22 2,17 2,11 C 2,7 5,4 9,4 C 12,4 14,6 16,9 C 18,6 20,4 23,4 C 27,4 30,7 30,11 C 30,17 24,22 16,28 Z" fill="#CC1111"/>
    </g>
  </g>
</svg>